<?xml version="1.0" standalone="no"?>
<!DOCTYPE svg PUBLIC "-//W3C//DTD SVG 20010904//EN"
 "http://www.w3.org/TR/2001/REC-SVG-20010904/DTD/svg10.dtd">
<svg version="1.0" xmlns="http://www.w3.org/2000/svg"
 width="500.000000pt" height="500.000000pt" viewBox="0 0 500.000000 500.000000"
 preserveAspectRatio="xMidYMid meet">

<g transform="translate(0.000000,500.000000) scale(0.100000,-0.100000)"
fill="#000000" stroke="none">
<path d="M0 2500 l0 -2500 2500 0 2500 0 0 2500 0 2500 -2500 0 -2500 0 0
-2500z m3244 1202 c102 -101 186 -187 186 -193 0 -15 -24 -10 -83 17 -52 23
-58 24 -84 10 -33 -17 -802 -778 -827 -818 -16 -25 -16 -28 4 -67 19 -38 19
-42 4 -48 -24 -9 -509 482 -546 553 -37 70 -53 171 -40 257 12 77 60 158 123
207 46 37 137 76 199 85 55 8 170 -15 231 -45 59 -30 227 -150 263 -189 17
-17 39 -31 51 -31 13 0 77 55 178 153 173 167 176 171 137 247 -25 48 -25 52
-1 48 11 -2 103 -85 205 -186z m-1808 -311 c-14 -28 -26 -62 -26 -76 0 -20 69
-96 319 -353 350 -360 510 -512 536 -512 9 0 30 8 46 17 22 13 31 15 41 5 9
-9 -38 -62 -218 -243 -259 -260 -321 -311 -415 -335 -84 -22 -208 -15 -265 14
-65 33 -132 106 -167 180 -29 61 -32 76 -32 162 1 78 5 106 26 155 27 64 123
205 196 287 24 27 43 56 41 64 -5 24 -299 324 -323 330 -15 4 -41 -2 -68 -15
-49 -24 -67 -26 -67 -10 0 10 326 351 369 387 30 25 34 -6 7 -57z m2026 -333
c102 -60 178 -176 195 -293 8 -61 -13 -168 -47 -235 -30 -60 -162 -242 -198
-274 -12 -11 -22 -27 -22 -37 0 -21 226 -269 283 -310 47 -34 60 -35 110 -9
20 11 41 20 47 20 34 0 -12 -57 -182 -225 -197 -196 -230 -216 -172 -106 18
36 24 59 20 77 -4 16 -138 159 -343 368 -394 399 -485 486 -508 486 -9 0 -30
-8 -46 -17 -23 -14 -31 -15 -41 -5 -10 10 39 63 232 258 135 134 267 259 294
276 70 46 126 58 237 55 82 -3 104 -8 141 -29z m-721 -915 c312 -314 314 -318
314 -493 0 -107 -2 -118 -27 -160 -59 -99 -159 -167 -280 -191 -63 -13 -180 6
-245 40 -54 27 -189 125 -245 177 -26 24 -56 44 -68 44 -20 0 -228 -185 -298
-264 -44 -51 -48 -71 -21 -127 12 -27 19 -52 16 -56 -15 -14 -62 26 -234 200
-187 189 -202 217 -90 162 44 -21 59 -24 81 -15 24 9 586 554 769 746 80 85
91 110 62 148 -18 24 -19 46 -2 46 7 0 128 -116 268 -257z"/>
<path d="M2907 3486 c-297 -286 -617 -610 -617 -625 0 -21 57 -71 81 -71 17 0
133 110 431 407 224 224 408 412 408 418 0 15 -63 75 -78 75 -7 0 -108 -92
-225 -204z"/>
<path d="M2112 3595 c-101 -37 -158 -105 -172 -203 -7 -55 5 -142 20 -142 4 0
16 24 26 52 14 39 39 74 94 131 75 79 120 110 195 132 50 15 58 40 14 49 -57
11 -113 5 -177 -19z"/>
<path d="M2317 3490 c-96 -28 -116 -41 -179 -109 -93 -99 -114 -205 -63 -300
35 -63 116 -141 147 -141 16 0 85 63 243 221 l220 220 -45 40 c-66 59 -112 80
-188 85 -48 3 -86 -2 -135 -16z"/>
<path d="M1296 3201 c-21 -22 -27 -36 -22 -54 8 -34 793 -827 818 -827 24 0
78 52 78 76 0 22 -808 834 -830 834 -9 0 -29 -13 -44 -29z"/>
<path d="M1520 2650 c-61 -72 -85 -154 -70 -238 34 -194 148 -320 310 -339 40
-5 59 -1 103 21 59 28 157 124 157 152 0 20 -427 454 -446 454 -7 0 -31 -23
-54 -50z"/>
<path d="M1347 2337 c-32 -83 4 -235 70 -299 50 -48 94 -69 157 -75 58 -5 128
7 124 22 -2 6 -27 20 -57 32 -38 16 -77 44 -129 95 -78 78 -95 103 -121 182
-16 51 -34 68 -44 43z"/>
<path d="M3235 3002 c-44 -10 -37 -22 25 -46 103 -39 226 -178 261 -293 14
-48 23 -53 39 -23 31 58 0 213 -57 280 -57 68 -174 104 -268 82z"/>
<path d="M3040 2876 c-54 -29 -150 -127 -150 -154 0 -20 425 -452 444 -452 15
0 78 75 101 120 31 61 32 156 1 256 -23 73 -36 95 -78 140 -96 102 -227 139
-318 90z"/>
<path d="M2767 2622 c-15 -15 -27 -37 -27 -47 0 -24 807 -835 830 -835 19 0
70 51 70 69 0 33 -794 841 -826 841 -11 0 -32 -13 -47 -28z"/>
<path d="M2118 1804 c-246 -244 -408 -412 -408 -424 0 -18 53 -70 72 -70 29 0
838 796 838 825 0 26 -49 75 -74 75 -14 0 -160 -139 -428 -406z"/>
<path d="M2455 1847 c-142 -139 -216 -218 -214 -229 7 -29 102 -98 158 -115
92 -27 233 1 324 64 84 58 147 170 147 260 0 19 -9 53 -21 76 -28 56 -127 157
-155 157 -14 0 -94 -71 -239 -213z"/>
<path d="M2942 1729 c-28 -71 -43 -98 -83 -143 -67 -75 -132 -122 -204 -146
-70 -23 -79 -35 -39 -50 62 -24 195 1 263 49 16 12 44 44 62 73 32 49 34 58
34 135 0 88 -16 128 -33 82z"/>
</g>
</svg>
